<svg xmlns="http://www.w3.org/2000/svg" viewBox="0 0 353.549 194.402">
  <defs>
    <style>
      .cls-1 {
        fill: #fffe9b;
      }

      .cls-2 {
        fill: #24d984;
      }

      .cls-3 {
        fill: #ff6136;
      }

      .cls-4 {
        fill: #fffe00;
      }
    </style>
  </defs>
  <g id="sticker_footer" data-name="sticker footer" transform="translate(-946.338 -5897)">
    <g id="go_green" data-name="go green" transform="translate(1149.689 5897)">
      <ellipse id="Ellipse_19" data-name="Ellipse 19" class="cls-1" cx="75.099" cy="75.099" rx="75.099" ry="75.099" transform="translate(0 0)"/>
      <g id="Groupe_97" data-name="Groupe 97" transform="translate(21.234 20.693)">
        <path id="Tracé_1497" data-name="Tracé 1497" d="M103.46,49.677h0a5.576,5.576,0,0,1,3.817-7.1,6.177,6.177,0,0,1,4.623.161l-1.021,2.527a3.844,3.844,0,0,0-2.8-.161,2.832,2.832,0,0,0-1.72,3.655v.054a2.786,2.786,0,0,0,3.655,1.935,2.83,2.83,0,0,0,1.505-.968l-.376-1.236-2.043.645-.645-2.1,4.731-1.505,1.451,4.623a7.379,7.379,0,0,1-3.924,3.01C107.545,54.192,104.427,52.795,103.46,49.677Z" transform="translate(-68.948 -40.212)"/>
        <path id="Tracé_1498" data-name="Tracé 1498" d="M126.2,44.356h0a5.674,5.674,0,0,1,5.591-5.86,5.565,5.565,0,0,1,5.967,5.322v.054a5.788,5.788,0,0,1-11.558.484Zm8.547-.376h0a2.769,2.769,0,0,0-2.9-2.8,2.7,2.7,0,0,0-2.58,2.957V44.2a2.748,2.748,0,1,0,5.483-.215Z" transform="translate(-79.59 -38.493)"/>
        <path id="Tracé_1499" data-name="Tracé 1499" d="M159.443,46.979h0a5.6,5.6,0,0,1,7.257-3.548,6.273,6.273,0,0,1,3.655,2.849l-2.312,1.451a3.72,3.72,0,0,0-2.15-1.774,2.857,2.857,0,0,0-3.548,1.935v.054a2.858,2.858,0,0,0,1.828,3.763,2.93,2.93,0,0,0,1.774.108l.43-1.236-1.989-.645.7-2.1,4.677,1.559-1.505,4.569a7.356,7.356,0,0,1-4.946.108A5.488,5.488,0,0,1,159.443,46.979Z" transform="translate(-94.826 -40.632)"/>
        <path id="Tracé_1500" data-name="Tracé 1500" d="M182.652,50l4.3,2.742a4.658,4.658,0,0,1,2.312,2.849,3.442,3.442,0,0,1-.538,2.634h0a3.425,3.425,0,0,1-3.655,1.613l.161,4.516-2.9-1.828-.054-3.924-1.075-.7-1.774,2.742L176.9,59.031Zm1.4,7.042c.86.538,1.613.43,2.043-.215h0c.43-.7.161-1.4-.7-1.935l-1.666-1.075-1.4,2.15Z" transform="translate(-103.038 -43.814)"/>
        <path id="Tracé_1501" data-name="Tracé 1501" d="M200.741,63.7l6.021,6.182-1.828,1.774-3.978-4.086L199.773,68.7l3.6,3.709-1.666,1.666-3.6-3.709-1.236,1.183,4.032,4.139-1.828,1.774L193,71.226Z" transform="translate(-110.483 -50.15)"/>
        <path id="Tracé_1502" data-name="Tracé 1502" d="M214.639,80.3l4.569,7.365-2.15,1.344-3.01-4.838-1.4.86,2.688,4.408-1.989,1.236-2.688-4.408-1.451.914,3.01,4.946-2.15,1.344L205.5,86.052Z" transform="translate(-116.263 -57.826)"/>
        <path id="Tracé_1503" data-name="Tracé 1503" d="M225.068,100.1l.86,2.634-4.086,5.913,5.429-1.72.914,2.8L217.918,113l-.806-2.473,4.247-6.182-5.645,1.774-.914-2.8Z" transform="translate(-120.564 -66.982)"/>
        <path id="Tracé_1504" data-name="Tracé 1504" d="M229.28,134.5h0a2.581,2.581,0,1,1,.108,5.161h-.054a2.581,2.581,0,1,1-.054-5.161Z" transform="translate(-126.067 -82.89)"/>
        <path id="Tracé_1505" data-name="Tracé 1505" d="M225.609,148.794h0a5.551,5.551,0,0,1,4.3,6.827,6.276,6.276,0,0,1-2.419,3.924l-1.72-2.15a3.61,3.61,0,0,0,1.505-2.312,2.794,2.794,0,0,0-2.312-3.279h-.054a2.8,2.8,0,0,0-3.494,2.258,3.231,3.231,0,0,0,.054,1.774l1.29.269.43-2.1,2.15.43-1.021,4.838-4.731-1.021a6.979,6.979,0,0,1-.645-4.892A5.565,5.565,0,0,1,225.609,148.794Z" transform="translate(-122.395 -89.442)"/>
        <path id="Tracé_1506" data-name="Tracé 1506" d="M219.146,171.248h0a5.8,5.8,0,0,1-5.268,10.321h-.054a5.663,5.663,0,0,1-2.312-7.741A5.6,5.6,0,0,1,219.146,171.248Zm-3.924,7.58h0a2.745,2.745,0,1,0,2.58-4.838h-.054a2.76,2.76,0,0,0-3.817,1.129A2.7,2.7,0,0,0,215.222,178.828Z" transform="translate(-118.728 -99.586)"/>
        <path id="Tracé_1507" data-name="Tracé 1507" d="M199.929,198.828h0a5.623,5.623,0,0,1-.538,8.064,6.294,6.294,0,0,1-4.3,1.774l-.108-2.742a3.756,3.756,0,0,0,2.58-.968,2.819,2.819,0,0,0,.054-4.032h0a2.825,2.825,0,0,0-4.139-.269,2.788,2.788,0,0,0-.968,1.505l.86.968,1.559-1.4,1.451,1.613-3.656,3.333-3.225-3.6a7.223,7.223,0,0,1,2.365-4.354A5.466,5.466,0,0,1,199.929,198.828Z" transform="translate(-108.864 -111.791)"/>
        <path id="Tracé_1508" data-name="Tracé 1508" d="M183.562,216.715l-4.516,2.365a4.729,4.729,0,0,1-3.655.591A3.2,3.2,0,0,1,173.4,217.9v-.054a3.47,3.47,0,0,1,.43-3.978l-4.032-2.1,3.064-1.613,3.44,1.882,1.129-.591-1.505-2.849,2.634-1.4Zm-6.773-2.258c-.914.484-1.183,1.183-.806,1.881v.054c.376.753,1.129.86,2.043.376l1.72-.914-1.236-2.312Z" transform="translate(-99.754 -116.508)"/>
        <path id="Tracé_1509" data-name="Tracé 1509" d="M164.081,226.429l-8.386,2.2-.645-2.473,5.537-1.451-.43-1.559-5,1.29-.591-2.258,5-1.29-.43-1.666-5.591,1.451L152.9,218.2l8.44-2.2Z" transform="translate(-91.939 -120.578)"/>
        <path id="Tracé_1510" data-name="Tracé 1510" d="M143.985,231.051l-8.655.269-.107-2.527,5.7-.215-.054-1.613-5.161.161-.054-2.365,5.161-.161-.054-1.72-5.752.215-.107-2.527,8.709-.269Z" transform="translate(-83.616 -122.566)"/>
        <path id="Tracé_1511" data-name="Tracé 1511" d="M120.4,229.533l-2.742-.591-3.172-6.451-1.183,5.537-2.9-.591,2.2-10.536,2.58.538,3.279,6.72,1.236-5.752,2.9.591Z" transform="translate(-72.286 -120.994)"/>
        <path id="Tracé_1512" data-name="Tracé 1512" d="M95.828,217.86h0a2.53,2.53,0,0,1-3.548.968,2.608,2.608,0,0,1-.968-3.548h0a2.6,2.6,0,0,1,4.516,2.58Z" transform="translate(-63.305 -119.642)"/>
        <path id="Tracé_1513" data-name="Tracé 1513" d="M78.868,205.691h0a5.6,5.6,0,0,1-8.064.376,6.119,6.119,0,0,1-2.2-4.086l2.688-.43a3.854,3.854,0,0,0,1.29,2.473,2.847,2.847,0,0,0,4.032-.376h0a2.817,2.817,0,0,0-.215-4.139,2.911,2.911,0,0,0-1.559-.806l-.86.968,1.559,1.4-1.451,1.613L70.374,199.4l3.225-3.6a7.3,7.3,0,0,1,4.569,1.882A5.483,5.483,0,0,1,78.868,205.691Z" transform="translate(-52.957 -111.237)"/>
        <path id="Tracé_1514" data-name="Tracé 1514" d="M62.736,189.255h0a5.675,5.675,0,0,1-7.9-1.774,5.546,5.546,0,0,1,1.505-7.849h0a5.638,5.638,0,0,1,7.849,1.828A5.438,5.438,0,0,1,62.736,189.255Zm-4.677-7.15h0a2.826,2.826,0,0,0-.968,3.924,2.725,2.725,0,0,0,3.871.7h0a2.76,2.76,0,0,0,.914-3.87A2.659,2.659,0,0,0,58.059,182.1Z" transform="translate(-46.125 -103.347)"/>
        <path id="Tracé_1515" data-name="Tracé 1515" d="M48.153,159.381h0a5.557,5.557,0,0,1-6.72-4.462,6.335,6.335,0,0,1,.591-4.623l2.419,1.236a3.763,3.763,0,0,0-.43,2.742,2.825,2.825,0,0,0,3.494,2.043h.054a2.805,2.805,0,0,0,2.258-3.494,2.863,2.863,0,0,0-.806-1.559l-1.29.269.484,2.043-2.15.484-1.075-4.838,4.731-1.021a7.284,7.284,0,0,1,2.634,4.193C52.991,155.78,51.324,158.683,48.153,159.381Z" transform="translate(-40.304 -89.225)"/>
        <path id="Tracé_1516" data-name="Tracé 1516" d="M39.5,136.969l.161-5.107a4.638,4.638,0,0,1,1.29-3.44,3.3,3.3,0,0,1,2.527-.86h.054a3.394,3.394,0,0,1,3.225,2.312l3.817-2.473-.108,3.44-3.333,2.1-.054,1.29,3.279.108-.108,2.957Zm5.322-4.784c.054-1.021-.43-1.613-1.236-1.613h-.054c-.86,0-1.29.591-1.344,1.559l-.054,1.935,2.58.054Z" transform="translate(-39.5 -79.606)"/>
        <path id="Tracé_1517" data-name="Tracé 1517" d="M41.1,114.032l2.2-8.332,2.473.645-1.451,5.483,1.559.43,1.344-5,2.258.591-1.344,5,1.666.43,1.505-5.591,2.473.645-2.258,8.44Z" transform="translate(-40.24 -69.572)"/>
        <path id="Tracé_1518" data-name="Tracé 1518" d="M47.6,93.133,51.632,85.5l2.258,1.183-2.634,5,1.451.753,2.419-4.569,2.1,1.075L54.8,93.51l1.505.806L59,89.209l2.258,1.183-4.086,7.741Z" transform="translate(-43.246 -60.231)"/>
        <path id="Tracé_1519" data-name="Tracé 1519" d="M58.8,73.38l1.828-2.1,7.2.484L63.584,68l1.935-2.2,8.064,7.15-1.72,1.935L64.391,74.4,68.8,78.325l-1.935,2.2Z" transform="translate(-48.425 -51.121)"/>
        <path id="Tracé_1520" data-name="Tracé 1520" d="M89.478,60.826h0a2.581,2.581,0,1,1,4.408-2.688h0a2.582,2.582,0,0,1-4.408,2.688Z" transform="translate(-62.438 -47.007)"/>
      </g>
      <g id="Groupe_98" data-name="Groupe 98" transform="translate(48.274 62.304)">
        <path id="Tracé_1521" data-name="Tracé 1521" class="cls-2" d="M89.8,128.748v-.054c0-7.2,5.644-12.794,13.278-12.794a14.368,14.368,0,0,1,10,3.6l-4.032,4.838a8.8,8.8,0,0,0-5.967-2.312,6.483,6.483,0,0,0-6.29,6.773v.054a6.51,6.51,0,0,0,6.666,6.827,7.066,7.066,0,0,0,3.924-1.021v-3.01H102.54v-5h11.343v11.074a16.607,16.607,0,0,1-10.7,3.817C95.552,141.488,89.8,136.22,89.8,128.748Z" transform="translate(-89.8 -115.9)"/>
        <path id="Tracé_1522" data-name="Tracé 1522" class="cls-2" d="M140.1,128.748v-.054c0-7.1,5.7-12.794,13.278-12.794s13.224,5.645,13.224,12.74v.054c0,7.1-5.7,12.794-13.278,12.794S140.1,135.79,140.1,128.748Zm19.568,0v-.054a6.427,6.427,0,0,0-6.343-6.666,6.281,6.281,0,0,0-6.236,6.558v.054a6.417,6.417,0,0,0,6.29,6.666A6.259,6.259,0,0,0,159.668,128.748Z" transform="translate(-113.06 -115.9)"/>
      </g>
    </g>
    <g id="eco_label" data-name="eco label" transform="translate(946.338 5934.953)">
      <g id="Groupe_110" data-name="Groupe 110" transform="translate(0 0)">
        <g id="Groupe_109" data-name="Groupe 109">
          <path id="Tracé_1528" data-name="Tracé 1528" class="cls-3" d="M2.529,79.518.785,71.961c-3.7-16.012,5.76-31.814,21.086-35.354L178.138.671c15.325-3.541,30.7,6.606,34.4,22.565l1.744,7.557c3.7,16.012-5.76,31.814-21.086,35.354L36.932,102.083C21.606,105.624,6.175,95.477,2.529,79.518Z" transform="translate(0.017 0.034)"/>
        </g>
      </g>
      <g id="Groupe_111" data-name="Groupe 111" transform="translate(26.988 20.436)">
        <path id="Tracé_1529" data-name="Tracé 1529" class="cls-1" d="M71,119.68l.159.74a1.338,1.338,0,0,1-.846,1.585l-10.886,3.911a3.5,3.5,0,0,0,2.907.793l2.167-.528a3.161,3.161,0,0,0,1.9-1.374,1.459,1.459,0,0,1,.846-.634,1.541,1.541,0,0,1,.846.053l3.171,1.321a1.225,1.225,0,0,1,.74.793,1.352,1.352,0,0,1-.106,1.11,9.143,9.143,0,0,1-5.972,4.65l-2.167.528a8.364,8.364,0,0,1-2.008.264,10.116,10.116,0,0,1-10.147-7.663l-.264-1.11a10.071,10.071,0,0,1,7.4-12.155c.159-.053.317-.053.476-.106A10.337,10.337,0,0,1,71,119.68Zm-6.87-.37a2.482,2.482,0,0,0-.317-.476,3.415,3.415,0,0,0-3.276-.634c-.211.053-.423.106-.581.159-1,.37-2.589,1.48-2.537,2.748a1.9,1.9,0,0,0,.106.581Z" transform="translate(-51.052 -73.089)"/>
        <path id="Tracé_1530" data-name="Tracé 1530" class="cls-1" d="M111.6,115.451a1.608,1.608,0,0,1,.053,1.11,10.43,10.43,0,0,1-7.029,6.183l-.211.053a10.683,10.683,0,0,1-12.789-8.033,10.286,10.286,0,0,1,4.756-11.415,12.412,12.412,0,0,1,3.012-1.215,10.387,10.387,0,0,1,9.354,2.272,1.5,1.5,0,0,1,.476,1,1.249,1.249,0,0,1-.423,1l-2.431,2.431a1.546,1.546,0,0,1-.634.37,1.305,1.305,0,0,1-1.163-.264,4.359,4.359,0,0,0-3.752-.846c-.106,0-.159.053-.264.053a4.463,4.463,0,0,0-2.907,5.39,4.379,4.379,0,0,0,4.228,3.435,6.506,6.506,0,0,0,1.057-.106,4.419,4.419,0,0,0,2.959-2.431,1.4,1.4,0,0,1,.9-.74,1.746,1.746,0,0,1,.74,0l3.276,1.057A1.286,1.286,0,0,1,111.6,115.451Z" transform="translate(-70.038 -68.437)"/>
        <path id="Tracé_1531" data-name="Tracé 1531" class="cls-1" d="M150.132,100.648l.053.264a10.568,10.568,0,0,1-5.76,12,9.6,9.6,0,0,1-1.955.687,12.9,12.9,0,0,1-2.061.317,10.511,10.511,0,0,1-10.622-8.033l-.053-.264a10.5,10.5,0,0,1,20.4-4.968Zm-5.919,1.48a4.377,4.377,0,0,0-8.508,2.061l.053.264a4.377,4.377,0,0,0,8.508-2.061Z" transform="translate(-88.012 -64.098)"/>
        <path id="Tracé_1532" data-name="Tracé 1532" class="cls-1" d="M198.926,92.6l.74,3.118a1.351,1.351,0,0,1-1,1.638l-7.874,1.9a1.351,1.351,0,0,1-1.638-1L183.97,76.8a1.351,1.351,0,0,1,1-1.638l3.276-.793a1.351,1.351,0,0,1,1.638,1l4.122,17.017,3.276-.793A1.351,1.351,0,0,1,198.926,92.6Z" transform="translate(-113.712 -55.471)"/>
        <path id="Tracé_1533" data-name="Tracé 1533" class="cls-1" d="M229.358,76.284l3.171,13a1.351,1.351,0,0,1-1,1.638l-3.276.793a1.355,1.355,0,0,1-1.48-.581,10.156,10.156,0,0,1-3.858,1.9l-3.012.74a6.9,6.9,0,0,1-6.5-1.8,7.156,7.156,0,0,1-1.955-6.764,6.553,6.553,0,0,1,4.915-4.968L223.6,78.5l-.37-1.48a.291.291,0,0,0-.264-.159l-6.923,1.691a1.165,1.165,0,0,1-.9,1.268l-3.435.9a1.351,1.351,0,0,1-1.638-1l-.9-3.646a1.351,1.351,0,0,1,1-1.638l11.573-2.8A6.277,6.277,0,0,1,229.358,76.284Zm-5.126,8.35-6.183,1.533a.788.788,0,0,0-.634.634,1,1,0,0,0,.423,1,.434.434,0,0,0,.37.053l3.224-.793A3.95,3.95,0,0,0,224.232,84.634Z" transform="translate(-125.595 -54.108)"/>
        <path id="Tracé_1534" data-name="Tracé 1534" class="cls-1" d="M271.989,68.228l.106.423a10.227,10.227,0,0,1-6.5,12.155c-.317.106-.581.159-.9.264a9.861,9.861,0,0,1-4.122.106,1.293,1.293,0,0,1-1,1.11l-3.276.793a1.351,1.351,0,0,1-1.638-1L249.37,60.3a1.351,1.351,0,0,1,1-1.638l3.276-.793a1.351,1.351,0,0,1,1.638,1l.846,3.435a10.565,10.565,0,0,1,3.646-1.744c.317-.053.581-.106.9-.159A10.232,10.232,0,0,1,271.989,68.228Zm-5.972,1.215a3.967,3.967,0,0,0-7.716,1.85l.264,1a3.954,3.954,0,0,0,7.663-1.955Z" transform="translate(-144.551 -47.691)"/>
        <path id="Tracé_1535" data-name="Tracé 1535" class="cls-1" d="M314.4,60.679l.159.74A1.338,1.338,0,0,1,313.714,63l-10.886,3.911a3.5,3.5,0,0,0,2.907.793l2.167-.528a3.161,3.161,0,0,0,1.9-1.374,1.459,1.459,0,0,1,.846-.634,1.542,1.542,0,0,1,.846.053l3.171,1.321a1.224,1.224,0,0,1,.74.793,1.352,1.352,0,0,1-.106,1.11,9.143,9.143,0,0,1-5.972,4.65l-2.167.528a8.364,8.364,0,0,1-2.008.264,10.116,10.116,0,0,1-10.147-7.663l-.264-1.11a10.071,10.071,0,0,1,7.4-12.155c.159-.053.317-.053.476-.106A10.292,10.292,0,0,1,314.4,60.679Zm-6.817-.37a2.48,2.48,0,0,0-.317-.476,3.415,3.415,0,0,0-3.276-.634c-.211.053-.423.106-.581.159-1,.37-2.589,1.48-2.537,2.748a1.065,1.065,0,0,0,.159.581Z" transform="translate(-165.824 -45.267)"/>
        <path id="Tracé_1536" data-name="Tracé 1536" class="cls-1" d="M346.179,56.9l.74,3.118a1.351,1.351,0,0,1-1,1.638l-7.874,1.9a1.351,1.351,0,0,1-1.638-1L331.17,41.1a1.351,1.351,0,0,1,1-1.638l3.276-.793a1.351,1.351,0,0,1,1.638,1l4.122,17.017,3.276-.793A1.381,1.381,0,0,1,346.179,56.9Z" transform="translate(-183.122 -38.637)"/>
      </g>
    </g>
    <g id="sun" transform="translate(1031.234 5967.3)">
      <g id="Groupe_114" data-name="Groupe 114" transform="translate(23.7 17.7)">
        <path id="Tracé_1537" data-name="Tracé 1537" class="cls-1" d="M77,108.925,89.4,124.1,96.7,105.131l18.378,8.5-2.61-19.9,20.174-2.221-14.066-13.64,15.695-11.808-18.341-9.143,7.829-17.249-20.488,1.425L99.786,22.716,84.073,34.357,70.914,17.7l-5.96,18.545L43.448,27.676,45.854,50,24.829,51.2,39.543,68.893,23.7,83.274l19.526,6.385-4.22,20.026,17.971-6.311,5.46,18.045Z" transform="translate(-23.7 -17.7)"/>
      </g>
      <g id="Groupe_115" data-name="Groupe 115" transform="translate(42.255 37.318)">
        <path id="Tracé_1538" data-name="Tracé 1538" class="cls-4" d="M173.73,190.773h0a35.627,35.627,0,0,0,21.654-20.359,31.337,31.337,0,0,0-2.017-27.447c-5.053-8.9-14.9-15.935-25.689-18.341a34.454,34.454,0,0,0-24.93,3.442,38.644,38.644,0,0,0-12.6,11.771,35,35,0,0,0-6.182,20.285c.222,9.828,5.867,19.082,15.473,25.356C149.929,192.328,163.069,194.364,173.73,190.773Z" transform="translate(-123.954 -123.701)"/>
      </g>
      <g id="Groupe_116" data-name="Groupe 116" transform="translate(78.302 53.972)">
        <path id="Tracé_1539" data-name="Tracé 1539" d="M322.972,213.684a4.587,4.587,0,0,1,2.221.666,3.417,3.417,0,0,1,1.573,3.628.917.917,0,0,1-1.073.777.93.93,0,0,1-.777-1.073,1.585,1.585,0,0,0-.74-1.74,2.764,2.764,0,0,0-2.85.019,2,2,0,0,0-.666,2.221.937.937,0,1,1-1.832.389,3.817,3.817,0,0,1,1.444-4.127A4.35,4.35,0,0,1,322.972,213.684Z" transform="translate(-318.719 -213.68)"/>
      </g>
      <g id="Groupe_117" data-name="Groupe 117" transform="translate(68.781 55.323)">
        <path id="Tracé_1540" data-name="Tracé 1540" d="M271.372,220.986a4.29,4.29,0,0,1,1.5.333,4.091,4.091,0,0,1,2.5,3.5.93.93,0,0,1-1.851.185,2.217,2.217,0,0,0-1.351-1.943,2.358,2.358,0,0,0-2.35.278,2.177,2.177,0,0,0-.611,2.239.942.942,0,0,1-.74,1.092.932.932,0,0,1-1.092-.74,4.055,4.055,0,0,1,1.259-4.035A3.96,3.96,0,0,1,271.372,220.986Z" transform="translate(-267.278 -220.983)"/>
      </g>
      <g id="Groupe_118" data-name="Groupe 118" transform="translate(60.018 58.66)">
        <path id="Tracé_1541" data-name="Tracé 1541" d="M232.805,251c-.592-.056-1.185-.148-1.777-.241-5.682-.981-9.272-3.091-10.994-6.441a.935.935,0,1,1,1.666-.851c1.444,2.795,4.59,4.571,9.661,5.441a25.791,25.791,0,0,0,12.622-.981c4.22-1.444,9.032-4.368,9.846-8.181a.958.958,0,0,1,1.11-.722.943.943,0,0,1,.722,1.11c-1.222,5.774-8.773,8.791-11.068,9.569A27.635,27.635,0,0,1,232.805,251Z" transform="translate(-219.929 -239.013)"/>
      </g>
    </g>
  </g>
</svg>
