<svg xmlns="http://www.w3.org/2000/svg" viewBox="0 0 168.337 168.337">
  <defs>
    <style>
      .cls-1 {
        fill: #fffe00;
      }

      .cls-2 {
        fill: #fff;
      }
    </style>
  </defs>
  <g id="patch_icon_contakt" data-name="patch icon contakt" transform="translate(0.027 0.027)">
    <path id="Tracé_193" data-name="Tracé 193" class="cls-1" d="M86.028-.007a84.169,84.169,0,1,0,82.26,82.26C167.344,37.456,130.9,1.009,86.028-.007Z" transform="translate(0 0)"/>
    <path id="Tracé_194" data-name="Tracé 194" class="cls-2" d="M90.779,18.394a70.807,70.807,0,1,0,69.191,69.191A70.917,70.917,0,0,0,90.779,18.394Z" transform="translate(-5.042 -5.042)"/>
    <path id="Tracé_195" data-name="Tracé 195" d="M131.363,88.932c-1.888-3.049-3.848-4.864-6.026-5.373a6.562,6.562,0,0,0-4.864.871c-4.864,2.977-2.323,8.132-1.379,10.092,1.452,2.9,1.742,5.082,1.525,6.462,0,.145-.073.29-.073.508-.145.508-.29.871-.581,1.016-.073.073-.29.29-.726,0-.436-.8-1.67-4.211-2.686-7.043-.653-1.742-2.4-7.986-3.485-11.834a6.429,6.429,0,0,0,2.4-.218,5.442,5.442,0,0,0,1.452-.726,5.677,5.677,0,0,0,2.686-3.63,8.625,8.625,0,0,0-1.234-6.1c-2.759-4.138-5.736-6.534-8.93-7.115a7.686,7.686,0,0,0-5.3.8,6.113,6.113,0,0,0-2.9,2.832,8.081,8.081,0,0,0-5.445-.218C93.1,70.2,91.939,71.8,91.5,73.25a8.482,8.482,0,0,0-4.356.218,6.325,6.325,0,0,0-4.429,4.792,7.783,7.783,0,0,0-3.7.871c-1.742,1.016-7.333,5.082-4.937,16.263a210.54,210.54,0,0,0,7.769,25.774c4.792,16.554,17.57,17.352,18.877,17.352a28.321,28.321,0,0,0,11.98-1.162,26.86,26.86,0,0,0,12.633-8.858,75.219,75.219,0,0,0,6.026-9.293l.145-.29a37.933,37.933,0,0,0,3.7-14.23C135.283,101.638,134.412,94.015,131.363,88.932Zm-26.21-19.821.145-.073.145-.073a4.86,4.86,0,0,1,3.412-.436c2.469.508,4.937,2.541,7.26,5.953a5.668,5.668,0,0,1,.871,3.993,3.184,3.184,0,0,1-1.379,1.96c-1.742,1.016-3.122.726-4.719-1.089a9.358,9.358,0,0,0-1.67-3.63,21.389,21.389,0,0,0-5.518-5.082A2.52,2.52,0,0,1,105.153,69.112Zm-8.495,2.614c.145-.073,4.574-1.6,10.31,5.663A7.017,7.017,0,0,1,108.2,82.18,2.6,2.6,0,0,1,107.04,84c-1.6.944-2.977.726-4.429-.726a9.716,9.716,0,0,0-1.6-3.485,19.088,19.088,0,0,0-7.043-5.808A4.132,4.132,0,0,1,96.658,71.725Zm-8.785,4.356h.145c.218-.073,5.227-1.815,10.963,5.445a7.017,7.017,0,0,1,1.234,4.792,2.6,2.6,0,0,1-1.162,1.815c-1.742,1.016-3.195.726-4.792-1.089a18.191,18.191,0,0,0-1.379-2.832c-2.686-3.34-5.3-4.937-7.478-5.59A3.381,3.381,0,0,1,87.873,76.082Zm44.579,28.388a36.088,36.088,0,0,1-3.412,13.214l-.145.363a76,76,0,0,1-5.736,8.712c-3.122,3.921-10.165,10.31-22.289,9h-.145c-.508,0-11.907-.073-16.336-15.465v-.145a204.032,204.032,0,0,1-7.623-25.411c-1.96-9.366,2.251-12.56,3.63-13.359.073,0,4.719-2.686,10.455,4.429a5.523,5.523,0,0,1,.944,4.066,3.2,3.2,0,0,1-1.379,2.178c-2.469,1.452-3.485.29-4.647-1.016a1.7,1.7,0,0,0-.508-.508c-1.234-1.234-2.4-2.323-3.558-1.525s-.508,2.251-.29,2.686c0,0,.944-.218.726-.29A4.174,4.174,0,0,1,83.3,92.417a1.925,1.925,0,0,1,.363.436,12.332,12.332,0,0,0,1.379,1.307,26.321,26.321,0,0,0,1.888,6.607L89.4,99.605a20.344,20.344,0,0,1-1.379-4.211,6.811,6.811,0,0,0,3.7-1.016,5.659,5.659,0,0,0,2.033-2.106,28.933,28.933,0,0,0,1.379,3.993L97.6,95.1a20.064,20.064,0,0,1-1.307-3.848,5.885,5.885,0,0,0,2.759-.218,5.442,5.442,0,0,0,1.452-.726,5.006,5.006,0,0,0,1.742-1.742,21.956,21.956,0,0,0,1.525,4.5l2.469-1.162a27.275,27.275,0,0,1-1.525-4.719,4.9,4.9,0,0,0,2.323-.29,7.27,7.27,0,0,0,1.525-.726,5.1,5.1,0,0,0,1.888-2.033c1.089,3.848,2.9,10.237,3.558,12.052,2.614,7.551,3.122,7.986,3.485,8.277a3.665,3.665,0,0,0,1.67.653c-.653,1.089-1.452,1.96-2.469,1.888l-.073,2.686a4.827,4.827,0,0,0,1.525-.218c3.993-1.307,5.082-8.059,5.155-8.349h0c.29-1.96-.145-4.647-1.815-8.059-1.742-3.558-1.67-5.3.363-6.534a3.759,3.759,0,0,1,2.832-.581q2.178.545,4.356,4.138C131.58,94.6,132.6,101.711,132.452,104.47Z" transform="translate(-20.141 -18.006)"/>
  </g>
</svg>
