<?xml version="1.0" encoding="utf-8"?>
<!-- Generator: Adobe Illustrator 26.0.1, SVG Export Plug-In . SVG Version: 6.00 Build 0)  -->
<svg version="1.1" id="Calque_1" xmlns="http://www.w3.org/2000/svg" xmlns:xlink="http://www.w3.org/1999/xlink" x="0px" y="0px"
	 viewBox="0 0 120 120" style="enable-background:new 0 0 120 120;" xml:space="preserve">
<g>
	<path d="M87.3,53.2h-6.5V41.1c0-11.6-9.5-21.1-21.1-21.1c-11.3,0-20.6,9.2-20.6,20.6v12.6h-6.5c-3.6,0-6.5,2.9-6.5,6.5v33.8
		c0,3.6,2.9,6.5,6.5,6.5h54.6c3.6,0,6.5-2.9,6.5-6.5V59.7C93.8,56,91,53.2,87.3,53.2z M41.8,40.6c0-9.9,8.1-18,18-18
		c10.1,0,18.5,8.3,18.5,18.5v12.1H41.8V40.6z M91.2,93.5c0,2.2-1.7,3.9-3.9,3.9H32.7c-2.2,0-3.9-1.7-3.9-3.9V59.7
		c0-2.2,1.7-3.9,3.9-3.9h54.6c2.2,0,3.9,1.7,3.9,3.9V93.5z"/>
	<path d="M60,62.9c-4.3,0-7.8,3.5-7.8,7.8c0,2.9,1.6,5.3,3.9,6.8V85c0,2.2,1.7,3.9,3.9,3.9s3.9-1.7,3.9-3.9v-7.5
		c2.3-1.4,3.9-3.9,3.9-6.8C67.8,66.4,64.3,62.9,60,62.9z M62.1,75.5l-0.8,0.4v9.2c0,0.8-0.5,1.3-1.3,1.3c-0.8,0-1.3-0.5-1.3-1.3
		v-9.2l-0.8-0.4c-2-0.9-3.1-2.7-3.1-4.8c0-2.9,2.3-5.2,5.2-5.2s5.2,2.3,5.2,5.2C65.2,72.8,64,74.8,62.1,75.5z"/>
</g>
</svg>
