<?xml version="1.0" encoding="utf-8"?>
<!-- Generator: Adobe Illustrator 26.0.1, SVG Export Plug-In . SVG Version: 6.00 Build 0)  -->
<svg version="1.1" id="Calque_1" xmlns="http://www.w3.org/2000/svg" xmlns:xlink="http://www.w3.org/1999/xlink" x="0px" y="0px"
	 viewBox="0 0 120 120" style="enable-background:new 0 0 120 120;" xml:space="preserve">
<g>
	<path d="M67.2,41.7c1.5,0.7,3.2,0.9,4.7,1c1.5,0.2,2.8,0.3,3.5,0.7c0.7,0.3,0.9,0.7,0.9,1.6c0,2.2-1.8,4-4.2,4
		C70,49,68.6,47.8,68,45.8c-0.7-2.3-4.1-1.2-3.3,1c0.8,2.3,2.3,4.7,5.7,5.5v1.5c0,2.4,3.4,2.4,3.4,0v-1.5c3.4-0.7,5.9-3.8,5.9-7.3
		c0-2.5-1.3-4-2.8-4.7c-1.5-0.8-3.2-0.9-4.7-1c-1.5-0.2-2.8-0.3-3.5-0.7c-0.7-0.3-0.9-0.8-0.9-1.6c0-2.2,1.8-4,4.2-4
		c2.1,0.1,3.5,1.2,4.2,3.4c0.7,2.2,4,1.2,3.3-1c-0.8-2.7-2.8-4.9-5.7-5.6v-1.5c0-2.3-3.4-2.3-3.4,0v1.5c-3.4,0.8-6,3.8-6,7.3
		C64.4,39.5,65.7,41,67.2,41.7z"/>
	<path d="M109.2,79.1c-1.6-2.8-4.8-3.4-8-2.4l-24.1,8.4c-0.4-1.8-1.5-3.4-3.3-4.4c-6.7-3.7-13.7-7.3-20.6-10.1c-2.2-0.8-4.7-2-7.2-2
		c-2.5,0-7.4,1.8-11.1,3.6c-2,0.9-3.6,1.8-4.8,2.5c-0.9-1.6-2.6-2.6-4.5-2.6H15.2c-2.9,0-5.2,2.3-5.2,5.2v24.1
		c0,2.8,2.3,5.2,5.2,5.2h10.3c2.8,0,5.2-2.3,5.2-5.2v-0.3c3.4-0.5,6.6-1.3,10.3-1.4c2.1,0,6.1,3,8.7,4.8c3.7,2.6,7.7,5.5,12,5.5
		c1.3,0,2.6-0.4,4.3-1.1c9.4-3.5,29.3-14.8,40.9-21.6C109.9,85.7,110.9,82,109.2,79.1z M27.2,101.4c0,0.9-0.8,1.7-1.7,1.7H15.2
		c-0.9,0-1.7-0.7-1.7-1.7V77.3c0-1,0.8-1.7,1.7-1.7h10.3c1,0,1.7,0.8,1.7,1.7C27.2,86.2,27.2,99.7,27.2,101.4z M105.3,84.4
		c-13.5,7.8-31,17.7-40.5,21.3c-1.6,0.6-2.8,0.9-3.1,0.9c-2.6,0-6.4-2.3-10-4.9c-2.5-1.7-6.9-5.4-10.7-5.5c-2.8,0-7.3,0.8-10.3,1.4
		V78.3c0,0,2.9-1.6,5.7-2.9c2.2-1.1,7.5-3.3,9.6-3.3c1.7,0,4.2,1,5.9,1.7c7.1,3,13.3,6.1,20.2,9.9c2,1.1,2.1,3.4,1.3,4.7
		c-0.9,1.6-3,2.2-4.7,1.3l-10.4-6c-2.1-1.2-3.9,1.7-1.7,3l10.4,6c3.3,1.9,7.5,0.8,9.4-2.5c0.2-0.4,0.5-0.9,0.6-1.3l25.4-8.8
		C106.8,78.5,107.6,83.1,105.3,84.4z"/>
	<path d="M72.1,60.4c10.7,0,19.4-8.7,19.4-19.4s-8.7-19.4-19.4-19.4c-10.7,0-19.4,8.7-19.4,19.4S61.4,60.4,72.1,60.4z M72.1,25.1
		C80.9,25.1,88,32.2,88,41C88,49.9,80.9,57,72.1,57c-8.8,0-15.9-7.1-15.9-15.9C56.1,32.2,63.2,25.1,72.1,25.1z"/>
	<circle cx="18.6" cy="97.9" r="1.7"/>
	<path d="M44.7,60.2l0.8-3c7.7,12.6,23.2,18.1,37.1,13c14.1-5.1,22.6-19.7,20-34.6C100,20.8,87.1,9.9,72.1,10c-2.3,0-2.3,3.4,0,3.5
		c13.4,0.1,24.8,9.6,27.2,22.8c2.3,13.2-5.1,26.1-17.7,30.7c-12.4,4.5-26.1-0.4-33-11.5l2.9,0.8c2.4,0.7,3.3-2.7,0.9-3.3l-7-1.9
		c-1.1-0.3-1.9,0.5-2.1,1.2l-1.9,7C40.8,61.6,44.1,62.5,44.7,60.2z"/>
</g>
</svg>
