<?xml version="1.0" encoding="utf-8"?>
<!-- Generator: Adobe Illustrator 26.0.1, SVG Export Plug-In . SVG Version: 6.00 Build 0)  -->
<svg version="1.1" id="Calque_1" xmlns="http://www.w3.org/2000/svg" xmlns:xlink="http://www.w3.org/1999/xlink" x="0px" y="0px"
	 viewBox="0 0 120 120" style="enable-background:new 0 0 120 120;" xml:space="preserve">
<g>
	<path d="M64.7,48.1H69c0-6.6-4.9-12.2-11.3-13.1v-4.8h-4.4V35c-6.2,1.1-11,6.6-11,13.1c0,6.5,4.7,12,11,13.1V79
		c-3.8-1-6.6-4.5-6.6-8.6h-4.4c0,6.5,4.7,12,11,13.1v5.4h4.4v-5.4C64.1,82.5,69,77,69,70.4s-4.9-12.2-11.3-13.1V39.4
		C61.7,40.3,64.7,43.9,64.7,48.1z M46.8,48.1c0-4.1,2.8-7.6,6.6-8.6v17.2C49.6,55.7,46.8,52.2,46.8,48.1z M64.7,70.4
		c0,4.2-3,7.8-6.9,8.7V61.7C61.7,62.6,64.7,66.1,64.7,70.4z"/>
	<path d="M86.7,54.9l12.8,7.9L110,52.4l-3.1-3.1l-5.7,5.7c-0.5-4.4-1.6-8.7-3.3-12.8c-2.3-5.4-5.6-10.3-9.8-14.5
		c-4.2-4.2-9.1-7.5-14.5-9.8c-5.6-2.4-11.6-3.6-17.8-3.6c-6.2,0-12.2,1.2-17.8,3.6c-5.4,2.3-10.3,5.6-14.5,9.8
		c-4.2,4.2-7.5,9.1-9.8,14.5C11.2,47.8,10,53.8,10,60c0,6.2,1.2,12.2,3.6,17.8c2.3,5.4,5.6,10.3,9.8,14.5c4.2,4.2,9.1,7.5,14.5,9.8
		c5.6,2.4,11.6,3.6,17.8,3.6c15.5,0,29.8-7.7,38.2-20.7l-3.7-2.4c-7.7,11.7-20.6,18.7-34.6,18.7c-5.6,0-11-1.1-16.1-3.2
		c-4.9-2.1-9.3-5.1-13.1-8.9c-3.8-3.8-6.8-8.2-8.9-13.1C15.5,71,14.4,65.6,14.4,60c0-5.6,1.1-11,3.2-16.1c2.1-4.9,5.1-9.3,8.9-13.1
		c3.8-3.8,8.2-6.8,13.1-8.9c5.1-2.2,10.5-3.2,16.1-3.2c5.6,0,11,1.1,16.1,3.2C76.7,24,81.2,27,85,30.8c3.8,3.8,6.8,8.2,8.9,13.1
		c1.6,3.9,2.7,7.9,3.1,12.1L89,51.1L86.7,54.9z"/>
</g>
</svg>
