<?xml version="1.0" encoding="utf-8"?>
<!-- Generator: Adobe Illustrator 26.0.1, SVG Export Plug-In . SVG Version: 6.00 Build 0)  -->
<svg version="1.1" id="Calque_1" xmlns="http://www.w3.org/2000/svg" xmlns:xlink="http://www.w3.org/1999/xlink" x="0px" y="0px"
	 viewBox="0 0 120 120" style="enable-background:new 0 0 120 120;" xml:space="preserve">
<g>
	<path d="M110,38.2v-6.9c0-2.6-2-4.6-4.4-4.6h-4.3v-7.3c0-1-0.8-1.8-1.8-1.8h-6.3c-1,0-1.8,0.8-1.8,1.8v7.3H38.7v-7.3
		c0-1-0.8-1.8-1.8-1.8h-6.3c-1,0-1.8,0.8-1.8,1.8v7.3h-3.8c-2.5,0-4.4,2.1-4.4,4.6v32.1C14.2,67.1,10,74.1,10,81.6
		c0,8.2,4.8,15.6,12.3,18.9c1.3,0.6,2.6,1,4,1.3c1.4,0.3,2.9,0.5,4.4,0.5c1.4,0,2.8-0.2,4.2-0.4h70.6c2.5,0,4.4-2.1,4.4-4.6
		L110,38.2C110,38.3,110,38.2,110,38.2C110,38.2,110,38.2,110,38.2z M95,21.2h2.7v7.3V31H95v-2.5V21.2z M32.5,21.2h2.7v7.3V31h-2.7
		v-2.5V21.2z M25.2,30.3H29v2.5v0.5c0,1,0.8,1.8,1.8,1.8H37c1,0,1.8-0.8,1.8-1.8v-0.5v-2.5h52.7v2.5v0.5c0,1,0.8,1.8,1.8,1.8h6.3
		c1,0,1.8-0.8,1.8-1.8v-0.5v-2.5h4.3c0.5,0,0.9,0.5,0.9,1.1v5.1H24.3v-5.1C24.3,30.8,24.7,30.3,25.2,30.3z M27,98.4
		c-1.1-0.2-2.3-0.6-3.3-1.1c-6.2-2.8-10.2-8.9-10.2-15.7c0-6.6,3.8-12.6,9.7-15.5c2.3-1.1,4.8-1.7,7.5-1.7c0.7,0,1.3,0,2,0.1
		c1.7,0.2,3.4,0.6,5,1.4c6.2,2.8,10.2,8.9,10.2,15.7c0,1.5-0.2,3-0.6,4.4c-1.3,4.7-4.5,8.7-8.8,10.9c-1.3,0.7-2.7,1.2-4.2,1.5
		c0,0,0,0,0,0C32,99,29.4,99,27,98.4z M32.5,61v-0.4c0-0.2,0.1-0.3,0.3-0.3h9.3c0.2,0,0.3,0.1,0.3,0.3v1.7c0,0.2-0.1,0.3-0.3,0.3
		h-3.3c-0.5-0.2-1.1-0.4-1.6-0.6c-0.1,0-0.2-0.1-0.3-0.1c-0.5-0.2-1.1-0.3-1.6-0.4c-0.2,0-0.4-0.1-0.5-0.1c-0.5-0.1-1-0.2-1.5-0.2
		c-0.1,0-0.3,0-0.4-0.1C32.7,61,32.6,61,32.5,61z M105.6,98.4H42.9c0,0,0.1-0.1,0.1-0.1c0.1-0.1,0.2-0.1,0.3-0.2
		c0.3-0.3,0.6-0.5,1-0.8c0.1-0.1,0.2-0.2,0.3-0.3c0.4-0.3,0.7-0.7,1.1-1.1c0.1-0.1,0.1-0.1,0.2-0.2c0.3-0.3,0.6-0.7,0.9-1
		c0.1-0.1,0.2-0.2,0.3-0.3c0.3-0.4,0.6-0.8,0.8-1.1c0,0,0-0.1,0.1-0.1c0.3-0.4,0.6-0.9,0.8-1.3c0.1-0.1,0.1-0.2,0.2-0.4
		c0.2-0.4,0.4-0.7,0.6-1.1c0-0.1,0.1-0.2,0.1-0.3c0.2-0.5,0.4-0.9,0.6-1.4c0-0.1,0.1-0.2,0.1-0.4c0.1-0.4,0.3-0.8,0.4-1.2
		c0-0.1,0.1-0.3,0.1-0.4c0.1-0.5,0.2-1,0.3-1.5c0-0.1,0-0.2,0-0.3c0.1-0.4,0.1-0.9,0.2-1.3c0-0.1,0-0.3,0-0.4c0-0.5,0.1-1.1,0.1-1.6
		c0-6.3-2.9-12.1-7.6-16c1.2-0.6,2-1.9,2-3.4v-1.7c0-2.1-1.7-3.8-3.8-3.8h-9.3c-2.1,0-3.8,1.7-3.8,3.8V61c-0.1,0-0.2,0-0.3,0
		c-0.2,0-0.4,0-0.6,0.1c-0.6,0.1-1.1,0.2-1.7,0.3c-0.1,0-0.3,0-0.4,0.1c-0.6,0.1-1.2,0.3-1.7,0.5V40h82.2v57.3
		C106.5,97.9,106.1,98.4,105.6,98.4z"/>
	<path d="M42.1,43.5h-9.3c-2.1,0-3.8,1.7-3.8,3.8V49c0,2.1,1.7,3.8,3.8,3.8h9.3c2.1,0,3.8-1.7,3.8-3.8v-1.7
		C45.9,45.2,44.2,43.5,42.1,43.5z M42.4,49c0,0.2-0.1,0.3-0.3,0.3h-9.3c-0.2,0-0.3-0.1-0.3-0.3v-1.7c0-0.2,0.1-0.3,0.3-0.3h9.3
		c0.2,0,0.3,0.1,0.3,0.3V49z"/>
	<path d="M69.8,43.5h-9.3c-2.1,0-3.8,1.7-3.8,3.8V49c0,2.1,1.7,3.8,3.8,3.8h9.3c2.1,0,3.8-1.7,3.8-3.8v-1.7
		C73.6,45.2,71.9,43.5,69.8,43.5z M70,49c0,0.2-0.1,0.3-0.3,0.3h-9.3c-0.2,0-0.3-0.1-0.3-0.3v-1.7c0-0.2,0.1-0.3,0.3-0.3h9.3
		c0.2,0,0.3,0.1,0.3,0.3V49z"/>
	<path d="M97.4,43.5h-9.3c-2.1,0-3.8,1.7-3.8,3.8V49c0,2.1,1.7,3.8,3.8,3.8h9.3c2.1,0,3.8-1.7,3.8-3.8v-1.7
		C101.3,45.2,99.6,43.5,97.4,43.5z M97.7,49c0,0.2-0.1,0.3-0.3,0.3h-9.3c-0.2,0-0.3-0.1-0.3-0.3v-1.7c0-0.2,0.1-0.3,0.3-0.3h9.3
		c0.2,0,0.3,0.1,0.3,0.3V49z"/>
	<path d="M69.8,56.8h-9.3c-2.1,0-3.8,1.7-3.8,3.8v1.7c0,2.1,1.7,3.8,3.8,3.8h9.3c2.1,0,3.8-1.7,3.8-3.8v-1.7
		C73.6,58.5,71.9,56.8,69.8,56.8z M70,62.3c0,0.2-0.1,0.3-0.3,0.3h-9.3c-0.2,0-0.3-0.1-0.3-0.3v-1.7c0-0.2,0.1-0.3,0.3-0.3h9.3
		c0.2,0,0.3,0.1,0.3,0.3V62.3z"/>
	<path d="M97.4,56.8h-9.3c-2.1,0-3.8,1.7-3.8,3.8v1.7c0,2.1,1.7,3.8,3.8,3.8h9.3c2.1,0,3.8-1.7,3.8-3.8v-1.7
		C101.3,58.5,99.6,56.8,97.4,56.8z M97.7,62.3c0,0.2-0.1,0.3-0.3,0.3h-9.3c-0.2,0-0.3-0.1-0.3-0.3v-1.7c0-0.2,0.1-0.3,0.3-0.3h9.3
		c0.2,0,0.3,0.1,0.3,0.3V62.3z"/>
	<path d="M69.8,70h-9.3c-2.1,0-3.8,1.7-3.8,3.8v1.7c0,2.1,1.7,3.8,3.8,3.8h9.3c2.1,0,3.8-1.7,3.8-3.8v-1.7
		C73.6,71.7,71.9,70,69.8,70z M70,75.5c0,0.2-0.1,0.3-0.3,0.3h-9.3c-0.2,0-0.3-0.1-0.3-0.3v-1.7c0-0.2,0.1-0.3,0.3-0.3h9.3
		c0.2,0,0.3,0.1,0.3,0.3V75.5z"/>
	<path d="M97.4,70h-9.3c-2.1,0-3.8,1.7-3.8,3.8v1.7c0,2.1,1.7,3.8,3.8,3.8h9.3c2.1,0,3.8-1.7,3.8-3.8v-1.7
		C101.3,71.7,99.6,70,97.4,70z M97.7,75.5c0,0.2-0.1,0.3-0.3,0.3h-9.3c-0.2,0-0.3-0.1-0.3-0.3v-1.7c0-0.2,0.1-0.3,0.3-0.3h9.3
		c0.2,0,0.3,0.1,0.3,0.3V75.5z"/>
	<path d="M69.8,83.3h-9.3c-2.1,0-3.8,1.7-3.8,3.8v1.7c0,2.1,1.7,3.8,3.8,3.8h9.3c2.1,0,3.8-1.7,3.8-3.8v-1.7
		C73.6,85,71.9,83.3,69.8,83.3z M70,88.8c0,0.2-0.1,0.3-0.3,0.3h-9.3c-0.2,0-0.3-0.1-0.3-0.3v-1.7c0-0.2,0.1-0.3,0.3-0.3h9.3
		c0.2,0,0.3,0.1,0.3,0.3V88.8z"/>
	<path d="M97.4,83.3h-9.3c-2.1,0-3.8,1.7-3.8,3.8v1.7c0,2.1,1.7,3.8,3.8,3.8h9.3c2.1,0,3.8-1.7,3.8-3.8v-1.7
		C101.3,85,99.6,83.3,97.4,83.3z M97.7,88.8c0,0.2-0.1,0.3-0.3,0.3h-9.3c-0.2,0-0.3-0.1-0.3-0.3v-1.7c0-0.2,0.1-0.3,0.3-0.3h9.3
		c0.2,0,0.3,0.1,0.3,0.3V88.8z"/>
	<path d="M43.4,81.6c0-1-0.8-1.8-1.8-1.8h-9.5v-6.6c0-1-0.8-1.8-1.8-1.8s-1.8,0.8-1.8,1.8v8.4c0,1,0.8,1.8,1.8,1.8h11.3
		C42.6,83.4,43.4,82.6,43.4,81.6z"/>
</g>
</svg>
