<?xml version="1.0" encoding="utf-8"?>
<!-- Generator: Adobe Illustrator 26.0.1, SVG Export Plug-In . SVG Version: 6.00 Build 0)  -->
<svg version="1.1" id="Calque_1" xmlns="http://www.w3.org/2000/svg" xmlns:xlink="http://www.w3.org/1999/xlink" x="0px" y="0px"
	 viewBox="0 0 120 120" style="enable-background:new 0 0 120 120;" xml:space="preserve">
<g>
	<path d="M20.2,46.6l-3.7,3.7c-0.2,0.2-0.3,0.5-0.3,0.8c0,0.3,0.1,0.6,0.3,0.8l4.7,4.7c0.2,0.2,0.5,0.3,0.8,0.3
		c0.3,0,0.6-0.1,0.8-0.3l3.7-3.7c0.2-0.2,0.3-0.5,0.3-0.8c0-0.3-0.1-0.6-0.3-0.8l-4.7-4.7C21.4,46.1,20.7,46.1,20.2,46.6z M22,54.2
		l-3.1-3.1L21,49l3.1,3.1L22,54.2z"/>
	<path d="M28.3,63.7c0.2,0.2,0.5,0.3,0.8,0.3c0.3,0,0.6-0.1,0.8-0.3l3.7-3.7c0.2-0.2,0.3-0.5,0.3-0.8c0-0.3-0.1-0.6-0.3-0.8
		l-4.7-4.7c-0.2-0.2-0.5-0.3-0.8-0.3c-0.3,0-0.6,0.1-0.8,0.3l-3.7,3.7c-0.2,0.2-0.3,0.5-0.3,0.8c0,0.3,0.1,0.6,0.3,0.8L28.3,63.7z
		 M28.1,56.1l3.1,3.1l-2.1,2.1L26,58.2L28.1,56.1z"/>
	<path d="M35.4,70.8c0.2,0.2,0.5,0.3,0.8,0.3c0.3,0,0.6-0.1,0.8-0.3l3.7-3.7c0.2-0.2,0.3-0.5,0.3-0.8c0-0.3-0.1-0.6-0.3-0.8L36,60.8
		c-0.4-0.4-1.2-0.4-1.6,0l-3.7,3.7c-0.2,0.2-0.3,0.5-0.3,0.8c0,0.3,0.1,0.6,0.3,0.8L35.4,70.8z M35.2,63.2l3.1,3.1l-2.1,2.1
		l-3.1-3.1L35.2,63.2z"/>
	<path d="M42.5,77.9c0.2,0.2,0.5,0.3,0.8,0.3c0.3,0,0.6-0.1,0.8-0.3l3.7-3.7c0.2-0.2,0.3-0.5,0.3-0.8c0-0.3-0.1-0.6-0.3-0.8
		l-4.7-4.7c-0.4-0.4-1.2-0.4-1.6,0l-3.7,3.7c-0.2,0.2-0.3,0.5-0.3,0.8c0,0.3,0.1,0.6,0.3,0.8L42.5,77.9z M42.3,70.3l3.1,3.1
		l-2.1,2.1l-3.1-3.1L42.3,70.3z"/>
	<path d="M35.3,52.5c0.7,0,1.4-0.3,1.9-0.8l5.4-5.4c0.5-0.5,0.8-1.2,0.8-1.9c0-0.7-0.3-1.4-0.8-1.9l-7.2-7.2
		c-0.5-0.5-1.2-0.8-1.9-0.8c-0.7,0-1.4,0.3-1.9,0.8l-5.4,5.4c-1.1,1.1-1.1,2.8,0,3.8l7.2,7.2C33.9,52.2,34.6,52.5,35.3,52.5z
		 M27.8,42.2l5.4-5.4c0.1-0.1,0.3-0.1,0.3-0.1c0.1,0,0.2,0,0.3,0.1L41,44c0.1,0.1,0.1,0.3,0.1,0.3c0,0.1,0,0.2-0.1,0.3l-5.4,5.4
		c-0.1,0.1-0.3,0.1-0.3,0.1c-0.1,0-0.2,0-0.3-0.1l-7.2-7.2C27.6,42.7,27.6,42.4,27.8,42.2z"/>
	<path d="M49.7,85.4c0.2,0.2,0.5,0.3,0.8,0.3c0.3,0,0.6-0.1,0.8-0.3l3.7-3.7c0.2-0.2,0.3-0.5,0.3-0.8c0-0.3-0.1-0.6-0.3-0.8
		l-4.7-4.7c-0.4-0.4-1.2-0.4-1.6,0l-3.7,3.7c-0.2,0.2-0.3,0.5-0.3,0.8c0,0.3,0.1,0.6,0.3,0.8L49.7,85.4z M49.5,77.7l3.1,3.1L50.5,83
		l-3.1-3.1L49.5,77.7z"/>
	<path d="M109.8,37.7c-0.2-0.2-0.4-0.4-0.7-0.5l-7.8-1.4c-0.6-0.1-1.2,0.3-1.3,0.9l-0.2,1l-48.9-8.9l-6.2-6.2
		c-0.6-0.6-1.4-1.1-2.2-1.4c-2.1-0.7-4.5-0.2-6.1,1.4L11.7,47.2c-2.3,2.3-2.3,6,0,8.3l41.8,41.8c0.6,0.6,1.4,1.1,2.2,1.4
		c0.6,0.2,1.3,0.3,1.9,0.3c1.5,0,3.1-0.6,4.2-1.7l24.7-24.7c1.1-1.1,1.7-2.6,1.7-4.2c0-1.6-0.6-3.1-1.7-4.2c-0.4-0.4-1.2-0.4-1.6,0
		c-0.4,0.4-0.4,1.2,0,1.6c0.7,0.7,1.1,1.6,1.1,2.6c0,1-0.4,1.9-1.1,2.6L60.3,95.8c-1,1-2.5,1.3-3.8,0.9c-0.5-0.2-1-0.5-1.4-0.9
		L13.3,54c-1.4-1.4-1.4-3.7,0-5.1L38,24.2c1-1,2.5-1.3,3.8-0.9c0.5,0.2,1,0.5,1.4,0.9l23.6,23.6c0.4,0.4,1.2,0.4,1.6,0
		c0.4-0.4,0.4-1.2,0-1.6L67,44.8l2.4,0.4c1.2,0.2,2,1.3,1.8,2.5c-0.1,0.6-0.5,1.1-1,1.4c-0.4,0.3-1,0.4-1.5,0.3c0,0,0,0,0,0
		l-9.9-1.8c-0.4-0.1-0.8-0.1-1.2-0.1c-3.1,0-5.8,2.2-6.3,5.3c-0.6,3.5,1.7,6.9,5.2,7.5L77,64.2c0.7,0.1,1.4,0.2,2.1,0.2
		c1.5,0,3-0.3,4.4-0.8c3.4-1.4,6-4.2,7-7.7l5.9,1.1L96.1,58c-0.1,0.6,0.3,1.2,0.9,1.3l7.8,1.4c0.1,0,0.1,0,0.2,0
		c0.2,0,0.5-0.1,0.6-0.2c0.2-0.2,0.4-0.4,0.5-0.7l3.9-21.3C110,38.2,110,37.9,109.8,37.7z M89.8,53.4c-0.3-0.1-0.6,0-0.8,0.2
		c-0.2,0.2-0.4,0.4-0.5,0.7c-0.6,3.2-2.8,5.9-5.8,7.1c-1.1,0.5-2.3,0.7-3.5,0.7c-0.6,0-1.1-0.1-1.7-0.2l-20.6-3.7
		c-2.3-0.4-3.8-2.6-3.4-4.9c0.4-2,2.1-3.4,4.1-3.4c0.3,0,0.5,0,0.8,0.1l9.8,1.8c0,0,0,0,0,0c1.1,0.2,2.2,0,3.2-0.6
		c1-0.7,1.8-1.7,2-2.9c0.4-2.4-1.2-4.7-3.6-5.2l-5.6-1L53.8,31.6l45.6,8.3l0,0l-2.7,14.8L89.8,53.4z M104.1,58.3l-5.5-1l0.2-1.1
		l3.1-17l0.2-1l5.5,1L104.1,58.3z"/>
</g>
</svg>
