<?xml version="1.0" encoding="utf-8"?>
<!-- Generator: Adobe Illustrator 26.0.1, SVG Export Plug-In . SVG Version: 6.00 Build 0)  -->
<svg version="1.1" id="Calque_1" xmlns="http://www.w3.org/2000/svg" xmlns:xlink="http://www.w3.org/1999/xlink" x="0px" y="0px"
	 viewBox="0 0 120 120" style="enable-background:new 0 0 120 120;" xml:space="preserve">
<g>
	<rect x="17.4" y="77" width="53.2" height="2.1"/>
	<path d="M32.3,53.6c1.8,0,3.2-1.4,3.2-3.2v-8.5c0-1.8-1.4-3.2-3.2-3.2H19.6c-1.8,0-3.2,1.4-3.2,3.2v8.5c0,1.8,1.4,3.2,3.2,3.2H32.3
		z M33.4,47.2h-4.3v-2.1h4.3V47.2z M24.9,40.9h7.4c0.6,0,1.1,0.5,1.1,1.1V43H27v4.3h-2.1V40.9z M24.9,49.4h8.5v1.1
		c0,0.6-0.5,1.1-1.1,1.1h-7.4V49.4z M18.5,41.9c0-0.6,0.5-1.1,1.1-1.1h3.2V43h-4.3V41.9z M18.5,50.4v-5.3h4.3v6.4h-3.2
		C19,51.5,18.5,51,18.5,50.4z"/>
	<path d="M85.5,51.5c5.3,0,9.6-4.3,9.6-9.6c0-5.3-4.3-9.6-9.6-9.6c-1.5,0-3,0.4-4.3,1c-1.3-0.6-2.7-1-4.3-1c-5.3,0-9.6,4.3-9.6,9.6
		c0,5.3,4.3,9.6,9.6,9.6c1.5,0,3-0.4,4.3-1C82.6,51.1,84,51.5,85.5,51.5z M85.5,34.5c4.1,0,7.4,3.3,7.4,7.4c0,4.1-3.3,7.4-7.4,7.4
		c-0.7,0-1.5-0.1-2.1-0.4c2-1.8,3.2-4.3,3.2-7.1c0-2.8-1.3-5.3-3.2-7.1C84.1,34.6,84.8,34.5,85.5,34.5z M77,49.4
		c-4.1,0-7.4-3.3-7.4-7.4c0-4.1,3.3-7.4,7.4-7.4c0.7,0,1.5,0.1,2.1,0.4c-2,1.8-3.2,4.3-3.2,7.1c0,2.8,1.3,5.3,3.2,7.1
		C78.5,49.2,77.8,49.4,77,49.4z M78.1,41.9c0-2.5,1.3-4.7,3.2-6.1c1.9,1.3,3.2,3.6,3.2,6.1c0,2.5-1.3,4.7-3.2,6.1
		C79.4,46.7,78.1,44.4,78.1,41.9z"/>
	<polygon points="25.2,62.4 22.8,64.9 20.3,62.4 18.8,63.9 21.3,66.4 18.8,68.8 20.3,70.3 22.8,67.9 25.2,70.3 26.7,68.8 24.3,66.4 
		26.7,63.9 	"/>
	<polygon points="31,62.4 29.5,63.9 31.9,66.4 29.5,68.8 31,70.3 33.4,67.9 35.8,70.3 37.3,68.8 34.9,66.4 37.3,63.9 35.8,62.4 
		33.4,64.9 	"/>
	<polygon points="41.6,70.3 44,67.9 46.5,70.3 48,68.8 45.5,66.4 48,63.9 46.5,62.4 44,64.9 41.6,62.4 40.1,63.9 42.5,66.4 
		40.1,68.8 	"/>
	<polygon points="56.5,70.3 58.9,67.9 61.4,70.3 62.9,68.8 60.4,66.4 62.9,63.9 61.4,62.4 58.9,64.9 56.5,62.4 55,63.9 57.4,66.4 
		55,68.8 	"/>
	<polygon points="72,62.4 69.6,64.9 67.1,62.4 65.6,63.9 68.1,66.4 65.6,68.8 67.1,70.3 69.6,67.9 72,70.3 73.5,68.8 71.1,66.4 
		73.5,63.9 	"/>
	<path d="M107.9,69.6V29.1c0-2.9-2.4-5.3-5.3-5.3H15.3c-2.9,0-5.3,2.4-5.3,5.3v51.1c0,2.9,2.4,5.3,5.3,5.3h60.1
		c2.8,6.3,9.1,10.6,16.5,10.6c10,0,18.1-8.1,18.1-18.1C110,75,109.2,72.1,107.9,69.6z M74.6,83.4H15.3c-1.8,0-3.2-1.4-3.2-3.2V29.1
		c0-1.8,1.4-3.2,3.2-3.2h87.2c1.8,0,3.2,1.4,3.2,3.2v37.3c-3.3-3.9-8.3-6.5-13.8-6.5c-10,0-18.1,8.1-18.1,18.1
		C73.8,79.9,74.1,81.7,74.6,83.4z M91.9,94c-8.8,0-16-7.2-16-16c0-8.8,7.2-16,16-16s16,7.2,16,16C107.9,86.9,100.7,94,91.9,94z"/>
	<polygon points="98.4,70.1 91.9,76.6 85.4,70.1 83.9,71.6 90.4,78.1 83.9,84.6 85.4,86.1 91.9,79.6 98.4,86.1 99.9,84.6 93.4,78.1 
		99.9,71.6 	"/>
</g>
</svg>
