<?xml version="1.0" encoding="utf-8"?>
<!-- Generator: Adobe Illustrator 26.0.1, SVG Export Plug-In . SVG Version: 6.00 Build 0)  -->
<svg version="1.1" id="Calque_1" xmlns="http://www.w3.org/2000/svg" xmlns:xlink="http://www.w3.org/1999/xlink" x="0px" y="0px"
	 viewBox="0 0 120 120" style="enable-background:new 0 0 120 120;" xml:space="preserve">
<g>
	<path d="M101.9,10H32.5c-7.5,0-13.6,6.1-13.6,13.6v71.2H6c-1.1,0-1.6,0.8-1.6,1.6c0,7.5,6.1,13.6,13.6,13.6h59.9
		c8.4,0,13.4-7.2,13.6-13.6V25.2H114c0.9,0,1.6-0.7,1.6-1.6C115.5,16.1,109.4,10,101.9,10z M18,106.8c-5.2,0-8.9-3.9-9.8-8.8
		c18.7,0,37.4,0,56.1,0c0.4,3.5,2.2,6.7,4.8,8.8H18z M88.3,23.4l0,73c0,5.8-4.6,10.4-10.4,10.4c0,0,0,0,0,0c0,0,0,0,0,0
		c-5.8,0-10.3-4.6-10.4-10.3c0.1-0.8-0.5-1.7-1.6-1.7H22.1V23.6c0-5.8,4.6-10.4,10.4-10.4h60.7C90.3,15.6,88.3,19.3,88.3,23.4z
		 M91.6,22c0.8-5,5-8.8,10.3-8.8c5.2,0,8.9,3.9,9.8,8.8H91.6z"/>
	<path d="M108.6,41h-7.7c-0.1,0-0.1,0-0.2,0c-0.8,0.1-1.4,0.8-1.4,1.6l0.1,59.5c0,0.3,0.1,0.7,0.3,1l3.9,5.2c0.6,0.9,1.9,0.8,2.6,0
		l3.8-5.1c0.2-0.3,0.3-0.6,0.3-1l-0.1-59.6C110.2,41.7,109.4,41,108.6,41z M104.8,104.6l-2.3-3.1l-0.1-57.4h4.6l0.1,57.4
		L104.8,104.6z"/>
	<path d="M101.3,38.4h6.9c2.2,0,2.2-3.2,0-3.2h-7.1C99,35.3,99.2,38.4,101.3,38.4z"/>
	<path d="M36.9,55.5h9.4c3.5,0,6.5-2.9,6.5-6.4v-2.6c0-2.1-3.2-2.1-3.2,0v2.6c0,1.8-1.4,3.2-3.3,3.2h-9.4c-1.8,0-3.3-1.4-3.3-3.2
		v-9.6c0-1.8,1.4-3.2,3.3-3.2h8.8c2.1,0,2.1-3.2,0-3.2h-8.8c-3.5,0-6.4,2.9-6.4,6.4v9.6C30.5,52.6,33.4,55.5,36.9,55.5z"/>
	<path d="M53.7,34.3c-0.4,0-0.8,0.2-1.1,0.5L42.4,44.9l-3.2-3.2c-0.6-0.7-1.7-0.7-2.3-0.1c-0.6,0.6-0.6,1.7,0.1,2.3l4.3,4.3
		c0.6,0.6,1.6,0.6,2.2,0l11.3-11.2C55.9,36.1,55.1,34.3,53.7,34.3z"/>
	<path d="M78.3,52.3H59.2c-0.9,0-1.7,0.7-1.7,1.6c0,0.9,0.8,1.6,1.7,1.6h19.1c0.9,0,1.7-0.7,1.7-1.6C80,53,79.2,52.3,78.3,52.3z"/>
	<path d="M64.8,36.2h13.5c2.1,0,2.1-3.2,0-3.2H64.8c-0.9,0-1.6,0.7-1.6,1.6C63.2,35.5,63.9,36.2,64.8,36.2z"/>
	<path d="M78.3,45.9H59.2c-0.9,0-1.7,0.7-1.7,1.6c0,0.9,0.8,1.6,1.7,1.6h19.1c0.9,0,1.7-0.7,1.7-1.6C80,46.6,79.2,45.8,78.3,45.9z"
		/>
	<path d="M78.3,39.5H59.2c-0.9,0-1.7,0.7-1.7,1.6c0,0.9,0.8,1.6,1.7,1.6h19.1c0.9,0,1.7-0.7,1.7-1.6C80,40.1,79.2,39.4,78.3,39.5z"
		/>
	<path d="M78.3,81.9H59.2c-2.1,0-2.1,3.2,0,3.2h19.1C80.5,85,80.5,81.9,78.3,81.9z"/>
	<path d="M78.3,62.6H64.8c-2.1,0-2.1,3.2,0,3.2h13.5C80.5,65.8,80.5,62.6,78.3,62.6z"/>
	<path d="M78.3,75.4H59.2v0c-0.9,0-1.6,0.7-1.6,1.6c0,0.9,0.7,1.6,1.6,1.6h19.1C80.5,78.6,80.5,75.4,78.3,75.4z"/>
	<path d="M78.3,69H59.2v0c-0.9,0-1.6,0.7-1.6,1.6c0,0.9,0.7,1.6,1.6,1.6h19.1C80.5,72.2,80.5,69,78.3,69z"/>
	<path d="M49.6,76v2.6c0,1.8-1.4,3.2-3.3,3.2h-9.4c-1.8,0-3.3-1.4-3.3-3.2V69c0-1.8,1.4-3.2,3.3-3.2h8.8c2.1,0,2.1-3.2,0-3.2h-8.8
		c-3.5,0-6.4,2.9-6.4,6.4v9.6c0,3.5,2.9,6.4,6.4,6.4h9.4c3.5,0,6.5-2.9,6.5-6.4V76C52.7,73.9,49.6,73.9,49.6,76z"/>
	<path d="M53.7,63.9c-0.4,0-0.8,0.2-1.1,0.5L42.4,74.5l-3.2-3.2c-0.6-0.7-1.7-0.7-2.3-0.1c-0.6,0.6-0.6,1.7,0.1,2.3l4.3,4.3
		c0.6,0.6,1.6,0.6,2.2,0l11.3-11.2C55.9,65.6,55.1,63.9,53.7,63.9z"/>
</g>
</svg>
