<?xml version="1.0" encoding="utf-8"?>
<!-- Generator: Adobe Illustrator 26.0.1, SVG Export Plug-In . SVG Version: 6.00 Build 0)  -->
<svg version="1.1" id="Calque_1" xmlns="http://www.w3.org/2000/svg" xmlns:xlink="http://www.w3.org/1999/xlink" x="0px" y="0px"
	 viewBox="0 0 90.1 59" style="enable-background:new 0 0 90.1 59;" xml:space="preserve">
<g>
	<path d="M45.1,0C15.7,0,0,24.7,0,29.5S15.7,59,45.1,59s45.1-24.7,45.1-29.5S74.5,0,45.1,0z M45.1,55C18,55,4.2,32.5,4,29.5
		C4.2,26.4,18,4,45.1,4s40.8,22.4,41.1,25.5C85.9,32.5,72.2,55,45.1,55z"/>
	<path d="M45.1,13c-9.4,0-17,7.4-17,16.5c0,9.1,7.6,16.5,17,16.5s17-7.4,17-16.5C62,20.4,54.4,13,45.1,13z M45.1,42
		c-7.2,0-13-5.6-13-12.5c0-6.9,5.8-12.5,13-12.5c7.2,0,13,5.6,13,12.5C58,36.4,52.2,42,45.1,42z"/>
</g>
</svg>
