<?xml version="1.0" encoding="utf-8"?>
<!-- Generator: Adobe Illustrator 26.0.1, SVG Export Plug-In . SVG Version: 6.00 Build 0)  -->
<svg version="1.1" id="Calque_1" xmlns="http://www.w3.org/2000/svg" xmlns:xlink="http://www.w3.org/1999/xlink" x="0px" y="0px"
	 viewBox="0 0 90.1 59" style="enable-background:new 0 0 90.1 59;" xml:space="preserve">
<g>
	<path d="M25.7,28l-5,6.7c-0.7,0.9-1.9,1.1-2.8,0.4s-1.1-1.9-0.4-2.8l4.8-6.4c-2.9-1.9-5.7-4.2-8.6-6.9c-0.8-0.8-0.9-2-0.1-2.8
		c0.8-0.8,2-0.9,2.8-0.1C35.7,34,54.5,34,73.7,16c0.8-0.8,2.1-0.7,2.8,0.1c0.8,0.8,0.7,2.1-0.1,2.8c-2.9,2.7-5.7,5-8.6,6.9l4.8,6.4
		c0.7,0.9,0.5,2.1-0.4,2.8c-0.9,0.7-2.1,0.5-2.8-0.4l-5-6.7c-2.2,1.2-4.4,2.3-6.6,3.1l3.1,7.7c0.4,1-0.1,2.2-1.1,2.6
		c-1,0.4-2.2-0.1-2.6-1.1L54,32.3c-2.3,0.6-4.6,1-7,1.1v8.1c0,1.1-0.9,2-2,2s-2-0.9-2-2v-8.1c-2.3-0.1-4.6-0.5-7-1.1l-3.2,7.9
		c-0.4,1-1.6,1.5-2.6,1.1c-1-0.4-1.5-1.6-1.1-2.6l3.1-7.7C30.1,30.2,27.9,29.2,25.7,28L25.7,28z"/>
</g>
</svg>
