<svg xmlns="http://www.w3.org/2000/svg" viewBox="0 0 931.84 285.81"><defs><style>.c1de2097-da1b-4bcf-96f4-dd26b72f0bc8{fill:#24d984;}</style></defs><title>Fichier 1</title><g id="22047a09-cfb5-4aaf-9d0e-17d450ded277" data-name="Calque 2"><g id="d7b3d677-f5b8-45c7-95b6-20a47a36dcda" data-name="Calque 1"><g id="799896b3-5393-49da-b031-3a78d1f12734" data-name="LOGO"><path d="M0,110.44V110C0,73.39,28.45,42.55,69.33,42.55c26.53,0,44.22,11.48,55.22,28.93l-30.84,23C87.49,85.82,80.56,80.8,69.57,80.8,55,80.8,44.22,93.71,44.22,109.49V110c0,16.73,10.52,29.4,25.82,29.4,10.76,0,17.69-5,24.87-13.39l30.35,22c-12,17.69-29.16,29.64-57.61,29.64C28.69,177.62,0,147,0,110.44Z"/><path d="M134.83,110.44V110c0-36.82,30.12-67.66,71.71-67.66,41.36,0,71.24,30.36,71.24,67.18V110c0,36.81-30.12,67.65-71.72,67.65C164.71,177.62,134.83,147.26,134.83,110.44Zm98.73,0V110c0-15.78-11.48-29.17-27.5-29.17-16.49,0-27,13.15-27,28.69V110c0,15.77,11.48,29.16,27.49,29.16C223,139.13,233.56,126,233.56,110.44Z"/><path d="M299.3,45.18h45.42V63.35c8.36-10.76,20.32-21,38.72-21,27.5,0,44,18.17,44,47.58v84.62H382v-70c0-14.11-7.41-21.76-18.17-21.76-11,0-19.12,7.65-19.12,21.76v70H299.3Z"/><path d="M461.14,134.35V81.76h-15.3V45.18h15.3V12.43h45.42V45.18h30.12V81.76H506.56V125.5c0,9.09,4.06,12.91,12.43,12.91a39.85,39.85,0,0,0,17.21-4.3v35.62c-8.13,4.54-18.89,7.41-31.56,7.41C477.39,177.14,461.14,165.19,461.14,134.35Z"/><path d="M552.22,137.46V137c0-26.78,20.32-40.64,50.68-40.64a99.26,99.26,0,0,1,31.08,5V99.21c0-13.39-8.37-21-25.82-21-13.63,0-24.15,2.63-35.62,7.17l-9.33-32c14.59-6,30.12-10,52.36-10,23.19,0,39,5.5,49.24,15.78,9.8,9.56,13.87,23,13.87,41.11v74.35H633.74V161.12c-8.85,9.81-21,16.26-38,16.26C571.1,177.38,552.22,163.27,552.22,137.46Zm82.23-9.8v-6a47.6,47.6,0,0,0-17.69-3.35c-13.15,0-20.8,6.46-20.8,16v.48c0,8.84,6.7,14.1,16,14.1C625.13,148.93,634.45,140.57,634.45,127.66Z"/><path d="M704.26,0h45.42V88.45l35.14-43.27h51.4L791.28,97.06l46.13,77.45h-50l-26.06-44-11.71,13.63v30.36H704.26Z"/><path d="M856.3,134.35V81.76H841V45.18h15.3V12.43h45.42V45.18h30.12V81.76H901.72V125.5c0,9.09,4.07,12.91,12.43,12.91a39.78,39.78,0,0,0,17.21-4.3v35.62c-8.12,4.54-18.88,7.41-31.55,7.41C872.56,177.14,856.3,165.19,856.3,134.35Z"/><path class="c1de2097-da1b-4bcf-96f4-dd26b72f0bc8" d="M234.08,216.18c0,.66.09,1.31.09,2v.48c0,15.54-10.52,28.68-27,28.68-16,0-27.5-13.38-27.5-29.16v-.48c0-.5.05-1,.07-1.5H135.49c0,.66-.05,1.32-.05,2v.48c0,36.81,29.88,67.17,71.24,67.17,41.59,0,71.71-30.84,71.71-67.65v-.48c0-.5,0-1,0-1.5Z"/></g></g></g></svg>