<?xml version="1.0" encoding="utf-8"?>
<!-- Generator: Adobe Illustrator 26.0.1, SVG Export Plug-In . SVG Version: 6.00 Build 0)  -->
<svg version="1.1" id="Calque_1" xmlns="http://www.w3.org/2000/svg" xmlns:xlink="http://www.w3.org/1999/xlink" x="0px" y="0px"
	 viewBox="0 0 163.6 109.6" style="enable-background:new 0 0 163.6 109.6;" xml:space="preserve">
<style type="text/css">
	.st0{fill:#FF6136;}
	.st1{fill:#FFFE9B;}
</style>
<g id="patch_icon_contakt" transform="matrix(0.966, -0.259, 0.259, 0.966, 5.545, 45.688)">
	<g id="Tracé_176">
		<path class="st0" d="M99.4,76.6l-65.1-6.5C9.5,67.6-8.5,45.6-6.1,20.9c0,0,0,0,0,0l0,0c2.5-24.7,24.5-42.8,49.2-40.3c0,0,0,0,0,0
			l65.1,6.5c24.7,2.5,42.8,24.5,40.3,49.2c0,0,0,0,0,0l0,0C146.1,61,124.1,79,99.4,76.6z"/>
		<path class="st1" d="M25.8,73.1c-9.9-2.7-18.7-8.3-25.4-16.4c-8.4-10.2-12.3-23.1-11-36.2l0-0.1c2.7-27.2,27-47.1,54.2-44.3
			l65.1,6.5c13.2,1.3,25,7.7,33.4,17.9c8.4,10.2,12.3,23.1,11,36.2l0,0.1c-2.7,27.1-27,47-54.1,44.3l0,0l-65.1-6.5
			C31.1,74.3,28.4,73.8,25.8,73.1z M-1.6,21.2L-1.6,21.2c-1.1,10.8,2.1,21.4,9,29.8c6.9,8.4,16.6,13.6,27.3,14.6l65.1,6.5
			c22.2,2.2,42-14,44.3-36.2l0-0.1c1.1-10.8-2.1-21.3-9-29.7c-6.9-8.4-16.6-13.6-27.3-14.6L42.8-15C20.5-17.2,0.7-1-1.6,21.2z"/>
	</g>
	<g id="Tracé_177">
		<path d="M55.8,53.1l-0.7-20.5l0.3-26.2c0-1.1,0.5-2.1,1.2-2.8c0.8-0.7,1.8-1.1,2.8-1.1c1.8,0,3.3,1.2,3.8,2.9L64.9-2
			c0.5-2.1,2.6-3.4,4.7-3c2.1,0.5,3.5,2.6,3,4.8l-2,8.4l3.6-7c1-2,3.4-2.7,5.4-1.7c0.9,0.5,1.6,1.3,2,2.3c0.3,1,0.2,2.1-0.3,3
			L75.7,16c6.5-1.5,13.2,2.4,15.1,8.9c0.5,1.8-0.3,3.6-1.8,4.5c1.3,1.2,1.7,3.2,1,4.8c-2.4,4.7-7.4,7.4-12.6,6.9
			c-0.9-0.1-1.9-0.3-2.8-0.6l1.5,14.6L55.8,53.1z M59.9,4.6c-0.2,0-0.3-0.1-0.5-0.1c-0.5,0-1,0.2-1.4,0.5c-0.4,0.4-0.6,0.9-0.6,1.4
			l-0.3,26.2l0.6,18.7l16.1,1.6l-1.6-15.6l1.6,0.8c1.2,0.6,2.4,0.9,3.7,1.1c4.3,0.4,8.6-1.9,10.6-5.8c0.5-1,0.1-2.2-0.9-2.8
			c-1-0.5-2.1-0.1-2.6,0.8c-1.2,2.5-3.9,3.9-6.7,3.6c-1.8-0.2-3.4-1.1-4.5-2.6c-1.1-1.4-1.6-3.2-1.3-5c0.5-3.5,3.6-6.1,7.1-5.9
			c2.8,0.2,5.1,2.2,5.8,4.9c0.1,0.5,0.5,0.9,0.9,1.2c0.5,0.3,1,0.3,1.5,0.2c1.1-0.3,1.7-1.4,1.4-2.5c-1.6-5.7-7.6-9-13.3-7.4
			c-0.5,0.1-1,0.3-1.5,0.6l-2.6,1.2l8.2-15.9c0.2-0.5,0.3-1,0.1-1.5c-0.2-0.5-0.5-0.9-1-1.2c-1-0.5-2.2-0.1-2.7,0.9l-11,21.4
			l5.6-24.1C71-1.7,70.3-2.8,69.2-3c-1.1-0.2-2.1,0.4-2.4,1.5l-5.5,23.8l0-8.6l0.1-7.1C61.4,5.6,60.7,4.8,59.9,4.6z M79.8,23.8
			c-0.3-0.1-0.5-0.1-0.8-0.1c-2.5-0.2-4.7,1.6-5,4.1c-0.2,1.3,0.2,2.5,0.9,3.5c0.8,1,1.9,1.6,3.1,1.8c1.9,0.2,3.8-0.8,4.6-2.5
			c0.4-0.7,0.9-1.2,1.5-1.6c-0.6-0.5-1-1.1-1.2-1.9C82.7,25.4,81.4,24.2,79.8,23.8z"/>
	</g>
</g>
</svg>
